<mxfile host="app.diagrams.net" modified="2024-01-07T09:41:05.187Z" agent="Mozilla/5.0 (Windows NT 10.0; Win64; x64) AppleWebKit/537.36 (KHTML, like Gecko) Chrome/120.0.0.0 Safari/537.36" etag="3vIko73FdXSiaCNTqP3-" version="22.1.17" type="github">
  <diagram name="第 1 页" id="IzCCPx1e8JI8bpzicisK">
    <mxGraphModel dx="700" dy="364" grid="1" gridSize="10" guides="1" tooltips="1" connect="1" arrows="1" fold="1" page="1" pageScale="1" pageWidth="827" pageHeight="1169" math="0" shadow="0">
      <root>
        <mxCell id="0" />
        <mxCell id="1" parent="0" />
        <mxCell id="LoXptLLLahGPZKnZbTi9-1" value="" style="rounded=0;whiteSpace=wrap;html=1;" vertex="1" parent="1">
          <mxGeometry x="170" y="130" width="480" height="340" as="geometry" />
        </mxCell>
        <mxCell id="LoXptLLLahGPZKnZbTi9-9" value="" style="group" vertex="1" connectable="0" parent="1">
          <mxGeometry x="190" y="150" width="110" height="280" as="geometry" />
        </mxCell>
        <mxCell id="LoXptLLLahGPZKnZbTi9-2" value="" style="rounded=1;whiteSpace=wrap;html=1;" vertex="1" parent="LoXptLLLahGPZKnZbTi9-9">
          <mxGeometry width="110" height="280" as="geometry" />
        </mxCell>
        <mxCell id="LoXptLLLahGPZKnZbTi9-3" value="缓存管理" style="text;html=1;strokeColor=none;fillColor=none;align=center;verticalAlign=middle;whiteSpace=wrap;rounded=0;" vertex="1" parent="LoXptLLLahGPZKnZbTi9-9">
          <mxGeometry x="10" y="10" width="60" height="30" as="geometry" />
        </mxCell>
        <mxCell id="LoXptLLLahGPZKnZbTi9-5" value="缓存规范" style="rounded=1;whiteSpace=wrap;html=1;" vertex="1" parent="LoXptLLLahGPZKnZbTi9-9">
          <mxGeometry x="10" y="40" width="90" height="40" as="geometry" />
        </mxCell>
        <mxCell id="LoXptLLLahGPZKnZbTi9-6" value="缓存监控" style="rounded=1;whiteSpace=wrap;html=1;" vertex="1" parent="LoXptLLLahGPZKnZbTi9-9">
          <mxGeometry x="10" y="100" width="90" height="40" as="geometry" />
        </mxCell>
        <mxCell id="LoXptLLLahGPZKnZbTi9-7" value="缓存配置" style="rounded=1;whiteSpace=wrap;html=1;" vertex="1" parent="LoXptLLLahGPZKnZbTi9-9">
          <mxGeometry x="10" y="160" width="90" height="40" as="geometry" />
        </mxCell>
        <mxCell id="LoXptLLLahGPZKnZbTi9-8" value="实时调控" style="rounded=1;whiteSpace=wrap;html=1;" vertex="1" parent="LoXptLLLahGPZKnZbTi9-9">
          <mxGeometry x="10" y="220" width="90" height="40" as="geometry" />
        </mxCell>
        <mxCell id="LoXptLLLahGPZKnZbTi9-14" value="" style="group" vertex="1" connectable="0" parent="1">
          <mxGeometry x="180" y="560" width="170" height="90" as="geometry" />
        </mxCell>
        <mxCell id="LoXptLLLahGPZKnZbTi9-10" value="" style="rounded=1;whiteSpace=wrap;html=1;" vertex="1" parent="LoXptLLLahGPZKnZbTi9-14">
          <mxGeometry width="170" height="90" as="geometry" />
        </mxCell>
        <mxCell id="LoXptLLLahGPZKnZbTi9-11" value="Caffine" style="rounded=1;whiteSpace=wrap;html=1;" vertex="1" parent="LoXptLLLahGPZKnZbTi9-14">
          <mxGeometry x="60" y="40" width="95" height="40" as="geometry" />
        </mxCell>
        <mxCell id="LoXptLLLahGPZKnZbTi9-12" value="JVM本地缓存" style="text;html=1;strokeColor=none;fillColor=none;align=center;verticalAlign=middle;whiteSpace=wrap;rounded=0;" vertex="1" parent="LoXptLLLahGPZKnZbTi9-14">
          <mxGeometry x="10" y="10" width="80" height="30" as="geometry" />
        </mxCell>
        <mxCell id="LoXptLLLahGPZKnZbTi9-13" value="应用A" style="text;html=1;strokeColor=none;fillColor=none;align=center;verticalAlign=middle;whiteSpace=wrap;rounded=0;" vertex="1" parent="LoXptLLLahGPZKnZbTi9-14">
          <mxGeometry y="50" width="60" height="30" as="geometry" />
        </mxCell>
        <mxCell id="LoXptLLLahGPZKnZbTi9-15" value="" style="group" vertex="1" connectable="0" parent="1">
          <mxGeometry x="400" y="560" width="170" height="90" as="geometry" />
        </mxCell>
        <mxCell id="LoXptLLLahGPZKnZbTi9-16" value="" style="rounded=1;whiteSpace=wrap;html=1;" vertex="1" parent="LoXptLLLahGPZKnZbTi9-15">
          <mxGeometry width="170" height="90" as="geometry" />
        </mxCell>
        <mxCell id="LoXptLLLahGPZKnZbTi9-17" value="Caffine" style="rounded=1;whiteSpace=wrap;html=1;" vertex="1" parent="LoXptLLLahGPZKnZbTi9-15">
          <mxGeometry x="60" y="40" width="95" height="40" as="geometry" />
        </mxCell>
        <mxCell id="LoXptLLLahGPZKnZbTi9-18" value="JVM本地缓存" style="text;html=1;strokeColor=none;fillColor=none;align=center;verticalAlign=middle;whiteSpace=wrap;rounded=0;" vertex="1" parent="LoXptLLLahGPZKnZbTi9-15">
          <mxGeometry x="10" y="10" width="80" height="30" as="geometry" />
        </mxCell>
        <mxCell id="LoXptLLLahGPZKnZbTi9-19" value="应用B" style="text;html=1;strokeColor=none;fillColor=none;align=center;verticalAlign=middle;whiteSpace=wrap;rounded=0;" vertex="1" parent="LoXptLLLahGPZKnZbTi9-15">
          <mxGeometry y="50" width="60" height="30" as="geometry" />
        </mxCell>
        <mxCell id="LoXptLLLahGPZKnZbTi9-20" value="REDIS CLUSTER" style="rounded=1;whiteSpace=wrap;html=1;" vertex="1" parent="1">
          <mxGeometry x="250" y="690" width="220" height="60" as="geometry" />
        </mxCell>
        <mxCell id="LoXptLLLahGPZKnZbTi9-21" value="MYSQL" style="rounded=1;whiteSpace=wrap;html=1;" vertex="1" parent="1">
          <mxGeometry x="180" y="780" width="390" height="60" as="geometry" />
        </mxCell>
        <mxCell id="LoXptLLLahGPZKnZbTi9-23" style="edgeStyle=orthogonalEdgeStyle;rounded=0;orthogonalLoop=1;jettySize=auto;html=1;exitX=0.75;exitY=1;exitDx=0;exitDy=0;" edge="1" parent="1">
          <mxGeometry relative="1" as="geometry">
            <mxPoint x="308.5" y="650" as="sourcePoint" />
            <mxPoint x="309" y="690" as="targetPoint" />
          </mxGeometry>
        </mxCell>
        <mxCell id="LoXptLLLahGPZKnZbTi9-25" style="edgeStyle=orthogonalEdgeStyle;rounded=0;orthogonalLoop=1;jettySize=auto;html=1;exitX=0.75;exitY=1;exitDx=0;exitDy=0;" edge="1" parent="1">
          <mxGeometry relative="1" as="geometry">
            <mxPoint x="430" y="650" as="sourcePoint" />
            <mxPoint x="430.5" y="690" as="targetPoint" />
          </mxGeometry>
        </mxCell>
        <mxCell id="LoXptLLLahGPZKnZbTi9-26" style="edgeStyle=orthogonalEdgeStyle;rounded=0;orthogonalLoop=1;jettySize=auto;html=1;exitX=0.205;exitY=0.999;exitDx=0;exitDy=0;entryX=0.108;entryY=0.007;entryDx=0;entryDy=0;entryPerimeter=0;exitPerimeter=0;" edge="1" parent="1" source="LoXptLLLahGPZKnZbTi9-10">
          <mxGeometry relative="1" as="geometry">
            <mxPoint x="213" y="650" as="sourcePoint" />
            <mxPoint x="215.12" y="780.4199999999998" as="targetPoint" />
            <Array as="points">
              <mxPoint x="215" y="651" />
              <mxPoint x="215" y="651" />
            </Array>
          </mxGeometry>
        </mxCell>
        <mxCell id="LoXptLLLahGPZKnZbTi9-27" style="edgeStyle=orthogonalEdgeStyle;rounded=0;orthogonalLoop=1;jettySize=auto;html=1;exitX=0.205;exitY=0.999;exitDx=0;exitDy=0;entryX=0.108;entryY=0.007;entryDx=0;entryDy=0;entryPerimeter=0;exitPerimeter=0;" edge="1" parent="1">
          <mxGeometry relative="1" as="geometry">
            <mxPoint x="510.02" y="649.58" as="sourcePoint" />
            <mxPoint x="510.14" y="779.9999999999999" as="targetPoint" />
            <Array as="points">
              <mxPoint x="510.02" y="650.58" />
              <mxPoint x="510.02" y="650.58" />
            </Array>
          </mxGeometry>
        </mxCell>
      </root>
    </mxGraphModel>
  </diagram>
</mxfile>
